<?xml version="1.0" encoding="utf-8"?>
<svg version="1.1" xmlns="http://www.w3.org/2000/svg" xmlns:xlink="http://www.w3.org/1999/xlink" x="0px" y="0px"
	 viewBox="0 0 16 16" style="enable-background:new 0 0 16 16;" xml:space="preserve">
<style type="text/css">
	.st0{opacity:0.25;}
</style>
<g>
	<path d="M2.2513,16H1.752c-0.5523,0-1-0.4477-1-1v-0.9992c0-0.5523,0.4477-1,1-1h0.4993c0.5523,0,1,0.4477,1,1V15
		C3.2513,15.5523,2.8036,16,2.2513,16z"/>
</g>
<g class="st0">
	<path d="M6.2502,16H5.7509c-0.5523,0-1-0.4477-1-1v-3.9983c0-0.5523,0.4477-1,1-1h0.4993c0.5523,0,1,0.4477,1,1V15
		C7.2502,15.5523,6.8025,16,6.2502,16z"/>
</g>
<g class="st0">
	<path d="M10.2491,16H9.7498c-0.5523,0-1-0.4477-1-1V8.0025c0-0.5523,0.4477-1,1-1h0.4993c0.5523,0,1,0.4477,1,1V15
		C11.2491,15.5523,10.8014,16,10.2491,16z"/>
</g>
<g class="st0">
	<path d="M14.248,16h-0.4993c-0.5523,0-1-0.4477-1-1V5.0033c0-0.5523,0.4477-1,1-1h0.4993c0.5523,0,1,0.4477,1,1V15
		C15.248,15.5523,14.8003,16,14.248,16z"/>
</g>
</svg>
