<?xml version="1.0" encoding="utf-8"?>
<svg version="1.1" id="Layer_1" xmlns="http://www.w3.org/2000/svg" xmlns:xlink="http://www.w3.org/1999/xlink" x="0px" y="0px"
	 viewBox="0 0 528 528" style="enable-background:new 0 0 528 528;" xml:space="preserve">
<path d="M200.625,7.7269l5.926,24c-23.352,5.769-45.703,15.023-66.301,27.449l-12.676-21.227
	C150.246,24.2189,174.879,14.027,200.625,7.7269L200.625,7.7269z M327.375,7.7269l-5.926,24
	c23.352,5.769,45.703,15.023,66.301,27.449l12.824-21.227C377.844,24.23,353.164,14.043,327.375,7.7269L327.375,7.7269z
	 M37.949,127.4999c-13.715,22.707-23.906,47.359-30.222,73.125l24,5.926c5.769-23.352,15.023-45.703,27.449-66.301L37.949,127.4999z
	 M24.75,264c0-12,0.902-23.984,2.699-35.852L3,224.398c-3.977,26.227-3.977,52.903,0,79.125l24.449-3.6711
	C25.652,287.984,24.75,275.9999,24.75,264L24.75,264z M400.426,489.977l-12.676-21.1531
	c-20.566,12.438-42.891,21.6921-66.227,27.4491l5.926,24C353.164,513.9099,377.766,503.6949,400.426,489.977L400.426,489.977z
	 M503.25,264c0,12-0.902,23.984-2.699,35.852L525,303.523c3.977-26.222,3.977-52.898,0-79.125l-24.449,3.75
	C502.348,240.0159,503.25,252,503.25,264L503.25,264z M520.273,327.3009l-24-5.926c-5.757,23.379-15.011,45.758-27.449,66.375
	l21.2271,12.75C503.781,377.773,513.973,353.0939,520.273,327.3009L520.273,327.3009z M299.852,500.551
	c-23.766,3.601-47.938,3.601-71.7039,0L224.477,525c26.199,3.9769,52.847,3.9769,79.0461,0L299.852,500.551z M456.602,405.898
	c-14.258,19.3319-31.348,36.399-50.704,50.625l14.704,19.954c21.312-15.6921,40.171-34.473,55.949-55.727L456.602,405.898z
	 M405.898,71.3979c19.356,14.254,36.45,31.348,50.704,50.704l19.949-14.852c-15.723-21.27-34.531-40.078-55.801-55.801
	L405.898,71.3979z M71.398,122.1019c14.254-19.356,31.348-36.45,50.704-50.704L107.25,51.449
	c-21.27,15.723-40.078,34.531-55.801,55.801L71.398,122.1019z M490.051,127.4999l-21.2271,12.75
	c12.438,20.566,21.692,42.891,27.449,66.227l24-5.926C513.957,174.809,503.766,150.1799,490.051,127.4999L490.051,127.4999z
	 M228.148,27.449c23.766-3.601,47.938-3.601,71.7039,0l3.6711-24.449c-26.199-3.977-52.847-3.977-79.0461,0L228.148,27.449z
	 M84.074,483.0739L33,494.926l11.926-51.074l-24.074-5.625L8.926,489.301c-1.508,6.394-0.41,13.125,3.051,18.711
	c3.461,5.5861,9,9.566,15.398,11.062c3.703,0.824,7.547,0.824,11.25,0l51.074-11.7729L84.074,483.0739z M25.949,416.176
	l24.153,5.551l8.25-35.403c-12.051-20.207-21.024-42.097-26.625-64.949l-24,5.926c5.398,21.871,13.562,42.969,24.296,62.773
	L25.949,416.176z M141.449,469.727l-35.398,8.25l5.625,24.148l26.023-6.074c19.793,10.765,40.891,18.933,62.778,24.301
	l5.9211-23.9999c-22.777-5.6801-44.589-14.704-64.722-26.7781L141.449,469.727z M264,49.6479
	c-118.4242,0-214.426,96.0018-214.426,214.426c0,41.9574,12.0621,81.0924,32.8913,114.1483L61.875,466.125l87.8502-20.5953
	C182.8076,466.4078,221.9892,478.5,264,478.5c118.4242,0,214.426-96.0018,214.426-214.426S382.4242,49.6479,264,49.6479z"/>
</svg>
